# xmcd
#
# Track frame offsets:
#	150
#	16575
#	37540
#	55383
#	74921
#	88332
#	109820
#	120794
#	138047
#	157801
#	174153
#	187563
#	207688
#	221460
#	236143
#
# Disc length: 3401 seconds
#
# Revision: 0
# Processed by: cddbd v1.5.2PL0 Copyright (c) Steve Scherf et al.
# Submitted via: EasyCDDAExtractor 16.0.6.1
#
DISCID=bd0d470f
DTITLE=Συλλογικός δίσκος - Όταν οι δρόμοι συναντιούνται-Χρ. Αηδονίδης 1
DYEAR=2004
DGENRE=Παραδοσιακή
TTITLE0=Αηδονίδης Χρόνης - Κακιά φουρτούνα
TTITLE1=Αηδονίδης Χρόνης - Σαν πας στα ξένα
TTITLE2=Καραντζή Νεκταρία - Έβγα μάνη μ'
TTITLE3=Αηδονίδης Χρόνης-Καραντζή Νεκταρία - Κυρά μ' κι αρχοντοπούλα
TTITLE4=Καραντζή Νεκταρία - Αρμένου γιος
TTITLE5=Αηδονίδης Χρόνης - Ένας άγουρος
TTITLE6=Καραντζή Νεκταρία - Βασίλεψεν αυγερινός
TTITLE7=Αηδονίδης Χρόνης - Σύρτε μάτια μ'
TTITLE8=Καραντζή Νεκταρία - Μαύρο μου χελιδόνι
TTITLE9=Αηδονίδης Χρόνης - Την ώρα π' αξιώνομαι
TTITLE10=Καραντζή Νεκταρία - Απόψε τα μεσάνυχτα
TTITLE11=Αηδονίδης Χρόνης - Άναψε το φαναράκι
TTITLE12=Καραντζή Νεκταρία - Αγάλι' αγάλια
TTITLE13=Αηδονίδης Χρόνης - Της Οβραιοπούλας
TTITLE14=Αηδονίδης Χρόνης - Κάτω στην άσπρη πέτρα
EXTD=
EXTT0=
EXTT1=
EXTT2=
EXTT3=
EXTT4=
EXTT5=
EXTT6=
EXTT7=
EXTT8=
EXTT9=
EXTT10=
EXTT11=
EXTT12=
EXTT13=
EXTT14=
PLAYORDER=
